<svg width="64" height="73" viewBox="0 0 64 73" fill="none" xmlns="http://www.w3.org/2000/svg">
<path d="M21.501 61.5001L40.501 61.5001L21.501 61.5001Z" fill="white"/>
<path d="M21.501 61.5001L40.501 61.5001" stroke="white" stroke-width="5" stroke-linecap="round"/>
<path d="M32.1416 71.6202C31.7322 71.825 31.2518 71.8323 30.8369 71.6388L24.8818 68.8595C23.4275 68.1808 23.9117 66.0001 25.5166 66.0001L37.0293 66.0001C38.6118 66.0005 39.1148 68.1341 37.6992 68.8419L32.1416 71.6202Z" fill="white" stroke="white"/>
<path d="M40.7258 55.5001C40.7258 54.5309 41.05 53.5617 41.3741 52.2694C42.0225 50.0078 43.3191 48.0694 44.6157 46.7771C47.3919 44.0846 49.2981 40.6273 50.0901 36.8482C50.8821 33.069 50.5238 29.1403 49.0612 25.5654C47.5986 21.9905 45.0983 18.9324 41.8806 16.7828C38.663 14.6332 34.8746 13.4902 31.001 13.5002C27.1274 13.4902 23.339 14.6332 20.1213 16.7828C16.9037 18.9324 14.4033 21.9905 12.9407 25.5654C11.4781 29.1403 11.1199 33.069 11.9119 36.8482C12.7039 40.6273 14.6101 44.0846 17.3862 46.7771C18.6829 48.0694 19.9795 50.0078 20.6278 52.2694C20.952 53.5617 21.2761 54.5309 21.2761 55.5001" stroke="white" stroke-width="5" stroke-linecap="round" stroke-linejoin="round"/>
<path d="M56.9399 29.2094L60.6774 27.9635" stroke="white" stroke-width="5" stroke-linecap="round"/>
<path d="M31.5063 6.43958L31.4766 2.50003" stroke="white" stroke-width="5" stroke-linecap="round"/>
<path d="M49.9678 13.0226L52.8565 10.3438" stroke="white" stroke-width="5" stroke-linecap="round"/>
<path d="M6.23828 29.2094L2.50079 27.9635" stroke="white" stroke-width="5" stroke-linecap="round"/>
<path d="M13.2104 13.0226L10.3217 10.3438" stroke="white" stroke-width="5" stroke-linecap="round"/>
</svg>
